Coordinates
version=1
nRows=21
nColumns=12
inDegrees=yes

Units are S.I. units (second, meters, Newtons, ...)
Angles are in degrees

endheader
time	SC_y	SC_z	SC_x	AC_y	AC_z	AC_x	GH_y	GH_z	GH_yy	EL_x	PS_y
       0.0              -20.05          -1.08          77.82           55.1         -10.34         -4.854          176.8           74.7         -140.6          115.4          38.78
   0.03012              -20.05         -1.079          77.81          55.09         -10.34         -4.852          176.8           74.7         -140.6          115.4          38.79
   0.06024              -20.05         -1.078           77.8          55.09         -10.34         -4.849          176.7           74.7         -140.6          115.4          38.79
   0.09036              -20.05         -1.077          77.79          55.09         -10.34         -4.847          176.7          74.69         -140.6          115.4           38.8
    0.1205              -20.05         -1.075          77.78          55.09         -10.34         -4.844          176.7          74.69         -140.6          115.4           38.8
    0.1506              -20.04         -1.074          77.77          55.08         -10.34         -4.841          176.7          74.69         -140.6          115.4          38.81
    0.1807              -20.04         -1.073          77.76          55.08         -10.35         -4.838          176.6          74.69         -140.6          115.4          38.82
    0.2108              -20.04         -1.071          77.74          55.07         -10.35         -4.835          176.6          74.69         -140.6          115.4          38.83
     0.241              -20.04         -1.069          77.73          55.07         -10.35         -4.831          176.6          74.68         -140.6          115.4          38.83
    0.2711              -20.04         -1.067          77.71          55.07         -10.35         -4.827          176.5          74.68         -140.6          115.4          38.84
    0.3012              -20.04         -1.066           77.7          55.06         -10.35         -4.823          176.5          74.68         -140.6          115.5          38.85
    0.3313              -20.03         -1.063          77.68          55.06         -10.36         -4.819          176.5          74.68         -140.6          115.5          38.86
    0.3614              -20.03         -1.061          77.66          55.05         -10.36         -4.814          176.4          74.67         -140.6          115.5          38.87
    0.3916              -20.03         -1.059          77.64          55.04         -10.36         -4.809          176.4          74.67         -140.6          115.5          38.89
    0.4217              -20.03         -1.056          77.62          55.04         -10.36         -4.803          176.3          74.67         -140.5          115.5           38.9
    0.4518              -20.02         -1.053           77.6          55.03         -10.37         -4.797          176.3          74.66         -140.5          115.5          38.91
    0.4819              -20.02          -1.05          77.57          55.02         -10.37         -4.791          176.2          74.66         -140.5          115.5          38.93
    0.5121              -20.02         -1.047          77.55          55.01         -10.38         -4.784          176.1          74.65         -140.5          115.5          38.95
    0.5422              -20.01         -1.043          77.51           55.0         -10.38         -4.776          176.1          74.65         -140.5          115.5          38.96
    0.5723              -20.01         -1.039          77.48          54.99         -10.38         -4.767          176.0          74.64         -140.5          115.5          38.98
    0.6024              -20.01         -1.034          77.45          54.98         -10.39         -4.758          175.9          74.63         -140.5          115.5          39.01
